PathFileType	4	(X/Y/Z)	C:\Users\Basilio\Documents\Thesis Gigler\squatting_fais\c3dfiles\044\SJ_pre5\markers_experimental.trc
DataRate	CameraRate	NumFrames	NumMarkers	Units	OrigDataRate	OrigDataStartFrame	OrigNumFrames
200.000000	200.000000	4	61	mm	200.000000	235	1880
Frame#	Time	FHD			LBHD			RBHD			C7			T10			CLAV			LSHO			LUUPA			LMUPA			LDUPA			LLEP			LMEP			LRAD			LUL			LRFIN			RSHO			RUPA1			RMUPA			RDUPA			RLEP			RMEP			RRAD			RUL			RUFIN			LASI			RASI			USACR			LSACR			RSACR			LTHI1			LTHI2			LTHI3			LTHI4			LLFC			LMFC			LTIB1			LTIB2			LTIB3			LTIB4			LLMAL			LMMAL			LHEE			LMT1			LMT2			LMT5			RTHI			RTHI2			RTHI3			RTHI4			RLFC			RMFC			RTIB1			RTIB2			RTIB3			RTIB4			RLMAL			RMMAL			RHEE			RMT1			RMT2			RMT5			
		X1	Y1	Z1	X2	Y2	Z2	X3	Y3	Z3	X4	Y4	Z4	X5	Y5	Z5	X6	Y6	Z6	X7	Y7	Z7	X8	Y8	Z8	X9	Y9	Z9	X10	Y10	Z10	X11	Y11	Z11	X12	Y12	Z12	X13	Y13	Z13	X14	Y14	Z14	X15	Y15	Z15	X16	Y16	Z16	X17	Y17	Z17	X18	Y18	Z18	X19	Y19	Z19	X20	Y20	Z20	X21	Y21	Z21	X22	Y22	Z22	X23	Y23	Z23	X24	Y24	Z24	X25	Y25	Z25	X26	Y26	Z26	X27	Y27	Z27	X28	Y28	Z28	X29	Y29	Z29	X30	Y30	Z30	X31	Y31	Z31	X32	Y32	Z32	X33	Y33	Z33	X34	Y34	Z34	X35	Y35	Z35	X36	Y36	Z36	X37	Y37	Z37	X38	Y38	Z38	X39	Y39	Z39	X40	Y40	Z40	X41	Y41	Z41	X42	Y42	Z42	X43	Y43	Z43	X44	Y44	Z44	X45	Y45	Z45	X46	Y46	Z46	X47	Y47	Z47	X48	Y48	Z48	X49	Y49	Z49	X50	Y50	Z50	X51	Y51	Z51	X52	Y52	Z52	X53	Y53	Z53	X54	Y54	Z54	X55	Y55	Z55	X56	Y56	Z56	X57	Y57	Z57	X58	Y58	Z58	X59	Y59	Z59	X60	Y60	Z60	X61	Y61	Z61	

236	1.175	8.784178733825685	1279.21044921875	-895.0216064453127	-118.1366271972657	1249.895629882813	-984.7344970703127	-175.8252563476563	1233.73193359375	-829.430358886719	-228.8193054199219	1132.6767578125	-909.1275634765627	-436.5906372070314	917.038024902344	-899.8629150390627	-140.1022491455078	1013.108520507813	-909.1591796875002	-151.0908813476563	1067.064086914063	-1084.901245117188	-309.8919372558594	980.517517089844	-1238.370849609375	-316.8086242675782	933.708435058594	-1226.165893554688	-360.2385253906251	943.0296630859377	-1267.90771484375	-401.266815185547	901.7697753906252	-1280.537109375	-455.8283081054689	949.4118652343752	-1235.142333984375	-537.3078613281251	710.1981811523439	-1122.279296875	-500.5527648925782	672.8453369140626	-1168.156616210938	-482.675750732422	707.2028198242189	-1083.037475585938	-157.4950561523438	1062.867065429688	-722.9923095703126	-284.3762817382813	960.7020263671877	-563.0255126953126	-288.5211486816407	911.7912597656252	-577.1393432617189	-325.2002258300782	913.9077758789065	-529.4727172851564	-360.7160034179688	863.550720214844	-516.7163696289064	-430.598602294922	908.5439453125002	-543.0523681640626	-517.5473632812501	678.7853393554689	-661.8355102539064	-470.7500000000001	640.0908813476564	-620.4708862304689	-459.3714294433595	684.7700195312501	-709.8847656250001	-424.5521545410157	676.2867431640626	-1023.098937988281	-414.7158508300782	663.2826538085939	-791.3470458984377	-537.6772460937501	790.0530395507815	-890.681091308594	-565.7202758789064	769.7261962890627	-916.396423339844	-559.1809082031251	768.7086181640627	-860.2051391601565	-444.2697753906251	565.6511230468751	-1126.999755859375	-361.3768005371094	553.6143798828126	-1147.743530273438	-334.4783630371094	590.9478149414064	-1135.741943359375	-331.7734069824219	501.6973876953126	-1155.040893554688	-207.4592437744141	423.3200073242189	-1164.827758789063	-192.1277008056641	410.2189025878907	-1051.737548828125	-254.0240936279297	262.1364135742188	-1087.481689453125	-305.5640258789063	236.3824615478516	-1156.20947265625	-280.3328857421876	219.5640563964844	-1120.071533203125	-336.9489746093751	166.334945678711	-1086.089111328125	-446.0063476562501	93.83818817138673	-1130.079467773438	-422.205780029297	99.62864685058597	-1044.625854492188	-512.0395507812501	49.62203979492189	-1081.1142578125	-295.1710510253907	60.87928390502931	-1075.6796875	-299.2702331542969	61.89379501342775	-1122.379150390625	-334.6661987304688	39.31414413452149	-1167.389892578125	-387.5144653320314	514.7017211914064	-692.6242065429689	-319.0617675781251	522.6140747070314	-686.3314819335939	-303.0718688964844	549.0895385742189	-694.0533447265626	-264.7310485839844	457.5084838867189	-692.9832153320314	-199.9102325439454	399.0765686035157	-699.0745849609376	-197.6997680664063	392.6371154785157	-818.4903564453127	-217.4758758544922	271.1929321289063	-730.6091918945314	-318.7692260742188	258.8383178710938	-683.8073120117189	-289.4076538085938	228.4371032714844	-702.3245849609376	-315.7372436523438	184.5433654785157	-730.4208374023439	-463.7474975585939	96.84864044189456	-712.3894653320314	-436.2032165527345	96.40977478027347	-797.7711181640627	-524.7105712890626	51.98471450805665	-762.6891479492189	-310.6221313476563	61.71081161499025	-754.3866577148439	-309.6996459960938	60.30940628051759	-716.9003906250001	-351.6886901855469	41.60140991210938	-668.2380981445314	
237	1.18	8.7965145111084	1279.13916015625	-895.0388183593752	-117.9594039916992	1249.817626953125	-984.8438110351565	-175.850570678711	1233.666748046875	-829.5551757812502	-228.7447357177735	1132.778564453125	-909.220642089844	-436.564666748047	917.0291137695315	-899.903503417969	-140.0912322998047	1013.065490722656	-909.1885986328127	-150.9961853027344	1066.9267578125	-1084.98046875	-309.7841186523438	980.508972167969	-1238.435913085938	-316.6954650878907	933.6037597656252	-1226.254272460938	-360.1426086425782	942.9477539062502	-1267.922241210938	-401.0776977539064	901.695007324219	-1280.633056640625	-455.6294250488282	949.2605590820315	-1235.2158203125	-537.1931762695314	710.1394653320314	-1122.357055664063	-500.382537841797	672.7191162109376	-1168.239868164063	-482.6499328613282	707.1847534179689	-1083.058227539063	-157.4472198486328	1062.860595703125	-723.0240478515626	-284.3453063964844	960.660339355469	-563.0746459960939	-288.5324096679688	911.804626464844	-577.1770019531251	-325.1853027343751	913.8662719726565	-529.4766235351564	-360.7869262695313	863.6010742187502	-516.8663330078126	-430.6224365234376	908.4967041015627	-543.1033325195314	-517.4915161132814	678.7385864257814	-661.8425292968751	-470.7353820800782	640.0585937500001	-620.4525146484376	-459.2583618164064	684.7410278320314	-709.9592285156251	-424.5943603515626	676.2816772460939	-1023.042541503906	-414.789764404297	663.2188110351564	-791.5222167968752	-537.5789794921876	790.0403442382815	-890.784606933594	-565.6813964843751	769.629089355469	-916.4462890625002	-559.0928344726564	768.6195068359377	-860.2756958007815	-444.1556091308595	565.6000366210939	-1127.060546875	-361.2411804199219	553.5089721679689	-1147.751220703125	-334.3702392578126	590.8904418945314	-1135.783447265625	-331.7040100097657	501.6272277832032	-1155.069458007813	-207.468002319336	423.1748046875001	-1164.851684570313	-192.0582275390626	410.1326293945314	-1051.757202148438	-253.9983215332032	262.1517639160157	-1087.500244140625	-305.5119628906251	236.3579559326172	-1156.293579101563	-280.3220520019532	219.5367736816407	-1120.057250976563	-336.8995971679688	166.3197174072266	-1086.1318359375	-445.9321289062501	93.85679626464845	-1130.080810546875	-422.152801513672	99.52955627441409	-1044.629272460938	-512.0364379882814	49.58572387695314	-1081.096313476563	-295.1890563964844	60.8385696411133	-1075.687377929688	-299.6068420410157	62.5089454650879	-1122.331176757813	-334.6619567871094	39.29489898681641	-1167.422973632813	-387.463836669922	514.6932373046876	-692.6302490234376	-318.9936523437501	522.6454467773439	-686.3567504882814	-303.0706787109376	549.0521240234376	-694.0407104492189	-264.6627502441407	457.2530212402345	-692.9773559570314	-199.8543548583985	399.0753479003907	-699.0423583984376	-197.6988830566407	392.5775756835939	-818.485534667969	-217.4558410644532	271.1004943847657	-730.5228881835939	-318.7719421386719	258.8476867675782	-683.8269653320314	-289.4022216796876	228.4045104980469	-702.3728027343751	-315.6697387695313	184.6338500976563	-730.4745483398439	-463.7933044433595	96.81887054443362	-712.4244995117189	-436.1696777343751	96.40779876708987	-797.7867431640627	-524.6920776367189	51.96504592895509	-762.6450195312501	-310.7048339843751	61.66237640380861	-754.4596557617189	-309.6928100585938	60.30673980712892	-716.9121093750001	-351.7957153320313	41.53345489501954	-668.3222045898439	
238	1.185	8.78278160095215	1279.137817382813	-895.0946044921877	-117.9383239746094	1249.695190429688	-984.9741821289065	-175.8846130371094	1233.681518554688	-829.7066040039065	-228.7112426757813	1132.6845703125	-909.2859497070315	-436.4493103027345	916.9390869140627	-899.9643554687502	-140.0783233642578	1013.036560058594	-909.1660156250002	-150.8827819824219	1066.946411132813	-1084.999755859375	-309.6929016113282	980.4475097656252	-1238.504150390625	-316.6641845703126	933.4854125976565	-1226.30126953125	-360.0205078125001	942.8780517578127	-1268.00732421875	-400.951385498047	901.6281738281252	-1280.675048828125	-455.4933166503907	949.1746215820315	-1235.279907226563	-537.0773925781251	710.1140747070314	-1122.390380859375	-500.2312622070314	672.6494140625001	-1168.2099609375	-482.5264892578126	707.1538696289064	-1083.091552734375	-157.4344177246094	1062.82373046875	-723.0989379882814	-284.3553466796876	960.6340332031252	-563.1530151367189	-288.5448303222657	911.846374511719	-577.2096557617189	-325.1883850097657	913.9061279296877	-529.5809326171876	-360.6963806152344	863.5891723632815	-516.9735717773439	-430.5816650390626	908.5114746093752	-543.1787719726564	-517.4790649414064	678.7026977539064	-661.8895874023439	-470.7363891601564	640.0411987304689	-620.5072021484376	-459.1689453125001	684.5908813476564	-709.9707641601564	-424.3569335937501	676.1754760742189	-1023.154907226563	-414.8547973632814	663.1614990234376	-791.8063964843752	-537.5115356445314	790.0064697265627	-890.8481445312502	-565.5870361328126	769.622985839844	-916.5438232421877	-558.9896850585939	768.5800781250002	-860.3477783203127	-444.0022583007814	565.6223144531251	-1127.0859375	-361.1429748535157	553.5037231445314	-1147.837036132813	-334.2060241699219	590.7913208007814	-1135.868408203125	-331.5964660644532	501.5185852050782	-1155.116088867188	-207.2870483398438	423.056121826172	-1164.89599609375	-192.2784729003907	410.2171630859376	-1051.8564453125	-253.9887237548829	262.0468139648438	-1087.4921875	-305.5366516113282	236.2561340332032	-1156.208740234375	-280.3278503417969	219.5336151123047	-1120.107421875	-336.7939758300782	166.3021240234375	-1086.121826171875	-445.9840393066407	93.82432556152345	-1130.075439453125	-422.2070922851564	99.67300415039065	-1044.644653320313	-512.0291748046876	49.57018280029298	-1081.072509765625	-295.1755981445313	60.8003616333008	-1075.673217773438	-299.5741271972657	62.47309494018556	-1122.288452148438	-334.6368713378907	39.31971740722657	-1167.438354492188	-387.4602966308595	514.6918945312501	-692.6631469726564	-318.9595336914063	522.5972290039064	-686.2958374023439	-303.0291748046876	549.0395507812501	-694.0376586914064	-264.5982971191407	457.2721252441407	-692.9710693359376	-199.7940368652344	399.0325927734376	-699.0456542968751	-197.4450836181641	392.5709838867189	-818.461608886719	-217.4784851074219	271.1051330566407	-730.5130004882814	-318.7620849609376	258.8796081542969	-683.8369750976564	-289.3265380859376	228.3951568603516	-702.3422851562501	-315.6438293457032	184.585693359375	-730.4206542968751	-463.7557067871095	96.84082031250003	-712.4788818359376	-436.1724853515626	96.40864562988284	-797.8331298828127	-524.6882934570314	52.01943969726564	-762.7453613281251	-310.5927429199219	61.73280334472658	-754.3648681640626	-309.6734619140626	60.35132598876955	-716.9726562500001	-351.8279724121094	41.46512985229493	-668.3641967773439	
239	1.19	8.825627326965334	1279.159057617188	-895.1209106445315	-117.8090591430664	1249.660522460938	-985.1230468750002	-175.8761291503907	1233.70751953125	-829.841735839844	-228.7544860839844	1132.7783203125	-909.339050292969	-436.376190185547	916.8382568359377	-900.022888183594	-140.0477142333985	1012.978332519531	-909.2012939453127	-150.7904663085938	1066.906494140625	-1085.034545898438	-309.6699523925782	980.4301757812502	-1238.526977539063	-316.5332946777344	933.4818115234377	-1226.312133789063	-359.8480224609376	942.872741699219	-1268.082397460938	-400.8923950195314	901.5950317382815	-1280.713989257813	-455.3917846679689	949.149353027344	-1235.360473632813	-537.0366821289064	710.1894531250001	-1122.451049804688	-500.0790100097657	672.5613403320314	-1168.216064453125	-482.4111633300782	707.1286010742189	-1083.150756835938	-157.4353942871094	1062.841430664063	-723.1574707031251	-284.2389526367188	960.671081542969	-563.2954101562501	-288.5337829589844	911.8377685546877	-577.2926025390626	-325.1836547851563	913.8322753906252	-529.5963745117189	-360.6768188476563	863.5284423828127	-517.0153808593751	-430.5917358398439	908.4849243164065	-543.2481689453126	-517.4680175781251	678.7160034179689	-661.8775634765626	-470.7376708984376	640.0375366210939	-620.5209960937501	-459.1005249023439	684.4947509765626	-709.9957275390626	-424.2766113281251	676.0407104492189	-1023.16357421875	-414.8216857910157	663.2051391601564	-791.8923339843752	-537.4923095703126	789.9915161132815	-890.8815917968752	-565.5083618164064	769.5684204101565	-916.607604980469	-558.9065551757814	768.489685058594	-860.424011230469	-443.8999023437501	565.5851440429689	-1127.107666015625	-361.0591125488282	553.4377441406251	-1147.844970703125	-334.2265930175782	590.6519165039064	-1135.907592773438	-331.5416259765626	501.5089111328126	-1155.102416992188	-207.1685028076172	423.0223999023439	-1164.910400390625	-192.3267974853516	410.2085876464845	-1052.007202148438	-253.9070892333985	262.0994873046876	-1087.508056640625	-305.4261474609376	236.2182312011719	-1156.277221679688	-280.2962951660157	219.4826354980469	-1120.0185546875	-336.6974487304688	166.3269348144532	-1086.144653320313	-445.9564208984376	93.85863494873048	-1130.082153320313	-422.202606201172	99.68489074707034	-1044.6328125	-511.9898681640626	49.62437057495119	-1081.101684570313	-295.1664428710938	60.74806976318361	-1075.660888671875	-299.3439636230469	61.82490539550783	-1122.33837890625	-334.6863098144532	39.33790588378907	-1167.392578125	-387.4356689453126	514.6928710937501	-692.6722412109376	-318.9346618652344	522.5894165039064	-686.3403320312501	-302.8945922851563	549.0322265625001	-694.1533203125001	-264.5389404296876	457.3283996582032	-692.9679565429689	-199.7913055419922	399.0202636718751	-699.0336303710939	-197.3352813720704	392.592254638672	-818.4990234375002	-217.4012451171876	271.0390930175782	-730.4584960937501	-318.6852416992188	258.7848815917969	-683.7501220703126	-289.2884216308594	228.3922271728516	-702.3174438476564	-315.6631469726563	184.5500946044922	-730.3467407226564	-463.7156677246095	96.86078643798831	-712.4063110351564	-436.1625366210939	96.40142059326175	-797.8283691406252	-524.6607055664064	52.01532363891603	-762.7675170898439	-310.5992736816407	61.78288650512697	-754.3706054687501	-308.8306884765626	60.49628829956056	-717.3034057617189	-351.6681213378907	41.62679672241212	-668.2082519531251	
